<svg xmlns="http://www.w3.org/2000/svg" viewBox="0 0 1596 1596"><defs><style>.cls-1{fill:#ff69b3;}</style></defs><title>Asset 1</title><g id="Layer_2" data-name="Layer 2"><g id="Layer_1-2" data-name="Layer 1"><polygon class="cls-1" points="599 634 1013 634 927 1032 513 1032 599 634"/><path class="cls-1" d="M412.17,1496.68A794.36,794.36,0,0,0,797.5,1596L880,1242H466Z"/><path class="cls-1" d="M428,422,513,56H731L654,423h406l75-348.55A795,795,0,0,0,798,0C493.23,0,228.38,170.85,94,422Z"/><path class="cls-1" d="M83,1031H294l86-398H83V443.23a799.7,799.7,0,0,0,0,709.54Z"/><path class="cls-1" d="M1329.92,203.14,1279,423h164V633H1232l-86,398h297v210H1099l-75,322.53c330.64-97.48,572-403.32,572-765.53C1596,561.63,1493.22,349.26,1329.92,203.14Z"/><path class="cls-1" d="M134.84,1242a800.76,800.76,0,0,0,87,108.08L247,1242Z"/></g></g></svg>